<?xml version="1.0" encoding="utf-8" ?>
<svg xmlns="http://www.w3.org/2000/svg" xmlns:xlink="http://www.w3.org/1999/xlink" width="24" height="24" viewBox="0 0 24 24">
	<defs>
		<clipPath id="clipPath6004542435">
			<path transform="matrix(1 0 0 1 -0 -0)" d="M0 0L24 0L24 24L0 24L0 0Z" fill-rule="nonzero"/>
		</clipPath>
	</defs>
	<g clip-path="url(#clipPath6004542435)">
		<path transform="matrix(1 0 0 1 0 3)" d="M23.25 15L3 15L3 0.75C3 0.335625 2.66438 0 2.25 0L0.75 0C0.335625 0 0 0.335625 0 0.75L0 16.5C0 17.3283 0.671719 18 1.5 18L23.25 18C23.6644 18 24 17.6644 24 17.25L24 15.75C24 15.3356 23.6644 15 23.25 15ZM21.75 1.5L16.2159 1.5C15.2138 1.5 14.7117 2.71172 15.4205 3.42047L16.9392 4.93922L13.5 8.37891L10.0608 4.93969C9.47484 4.35375 8.52516 4.35375 7.93969 4.93969L4.71984 8.15953C4.42688 8.4525 4.42688 8.92734 4.71984 9.22031L5.78016 10.2806C6.07312 10.5736 6.54797 10.5736 6.84094 10.2806L9 8.12109L12.4392 11.5603C13.0252 12.1462 13.9748 12.1462 14.5603 11.5603L19.0603 7.06031L20.5791 8.57906C21.2878 9.28781 22.4995 8.78578 22.4995 7.78359L22.4995 2.25C22.5 1.83563 22.1644 1.5 21.75 1.5Z" fill-rule="nonzero" fill="rgb(79, 70, 229)"/>
	</g>
</svg>
